<svg width="184" height="195" viewBox="0 0 184 195" fill="none" xmlns="http://www.w3.org/2000/svg">
<mask id="mask0_114_156" style="mask-type:alpha" maskUnits="userSpaceOnUse" x="22" y="25" width="140" height="170">
<path d="M108.727 125.783V138.589H111.515C139.23 138.589 161.697 161.039 161.697 188.732V195H22.3032V188.732C22.3032 161.039 44.7704 138.589 72.485 138.589H75.2729V125.783C63.259 120.08 54.6233 108.425 53.1826 94.6316C49.1228 94.0581 46.0002 90.572 46.0002 86.3571V76.6071C46.0002 72.4662 49.0143 69.0286 52.9699 68.3655V64.0714C52.9699 42.5323 70.4444 25.0714 92.0002 25.0714C113.556 25.0714 131.03 42.5323 131.03 64.0714V68.3655C134.986 69.0286 138 72.4662 138 76.6071V86.3571C138 90.572 134.878 94.0581 130.818 94.6316C129.377 108.425 120.741 120.08 108.727 125.783Z" fill="white"/>
</mask>
<g mask="url(#mask0_114_156)">
<path d="M108.727 125.783V138.589H111.515C139.23 138.589 161.697 161.039 161.697 188.732V195H22.3032V188.732C22.3032 161.039 44.7704 138.589 72.485 138.589H75.2729V125.783C63.259 120.08 54.6233 108.425 53.1826 94.6316C49.1228 94.0581 46.0002 90.572 46.0002 86.3571V76.6071C46.0002 72.4662 49.0143 69.0286 52.9699 68.3655V64.0714C52.9699 42.5323 70.4444 25.0714 92.0002 25.0714C113.556 25.0714 131.03 42.5323 131.03 64.0714V68.3655C134.986 69.0286 138 72.4662 138 76.6071V86.3571C138 90.572 134.878 94.0581 130.818 94.6316C129.377 108.425 120.741 120.08 108.727 125.783Z" fill="#D0C6AC"/>
<path d="M206.303 25.0714H22.3032V220.071H206.303V25.0714Z" fill="#EDB98A"/>
<path fill-rule="evenodd" clip-rule="evenodd" d="M131.03 80.0893V96.1071C131.03 117.646 113.556 135.107 92 135.107C70.4442 135.107 52.9697 117.646 52.9697 96.1071V80.0893V90.5357C52.9697 112.075 70.4442 129.536 92 129.536C113.556 129.536 131.03 112.075 131.03 90.5357V80.0893Z" fill="black" fill-opacity="0.1"/>
</g>
<mask id="mask1_114_156" style="mask-type:alpha" maskUnits="userSpaceOnUse" x="22" y="127" width="140" height="68">
<path fill-rule="evenodd" clip-rule="evenodd" d="M75.2729 127.496C62.7841 128.892 53.1649 132.706 52.9728 142.521C34.9507 150.128 22.3032 167.954 22.3032 188.732V195H161.697V188.732C161.697 167.954 149.05 150.128 131.028 142.521C130.835 132.706 121.216 128.892 108.727 127.496V140.679C108.727 149.91 101.238 157.393 92.0002 157.393C82.762 157.393 75.2729 149.91 75.2729 140.679V127.496Z" fill="white"/>
</mask>
<g mask="url(#mask1_114_156)">
<path fill-rule="evenodd" clip-rule="evenodd" d="M75.2729 127.496C62.7841 128.892 53.1649 132.706 52.9728 142.521C34.9507 150.128 22.3032 167.954 22.3032 188.732V195H161.697V188.732C161.697 167.954 149.05 150.128 131.028 142.521C130.835 132.706 121.216 128.892 108.727 127.496V140.679C108.727 149.91 101.238 157.393 92.0002 157.393C82.762 157.393 75.2729 149.91 75.2729 140.679V127.496Z" fill="#B7C1DB"/>
<path d="M184 118.393H0V195H184V118.393Z" fill="#4D6AF6"/>
<path fill-rule="evenodd" clip-rule="evenodd" d="M71.0912 161.39V195H66.2124V158.89C67.7484 159.803 69.3814 160.639 71.0912 161.39ZM117.788 158.89V186.991C117.788 188.337 116.696 189.429 115.349 189.429C114.002 189.429 112.909 188.337 112.909 186.991V161.39C114.619 160.639 116.252 159.803 117.788 158.89Z" fill="#F4F4F4"/>
<path fill-rule="evenodd" clip-rule="evenodd" d="M63.3968 127.254C52.9068 129.237 45.6519 133.187 45.6519 140.893C45.6519 154.621 68.6781 165.75 92.0003 165.75C115.323 165.75 138.349 154.621 138.349 140.893C138.349 133.187 131.094 129.237 120.604 127.254C126.936 129.588 131.031 133.51 131.031 140.036C131.031 154.237 111.64 165.75 92.0003 165.75C72.3606 165.75 52.97 154.237 52.97 140.036C52.97 133.51 57.0648 129.588 63.3968 127.254Z" fill="black" fill-opacity="0.16"/>
</g>
<path fill-rule="evenodd" clip-rule="evenodd" d="M82.2422 103.768C82.2422 109.153 86.6108 113.518 91.9998 113.518C97.3887 113.518 101.757 109.153 101.757 103.768" fill="black" fill-opacity="0.7"/>
<path fill-rule="evenodd" clip-rule="evenodd" d="M83.6362 90.5357C83.6362 93.6128 87.3808 96.1072 91.9999 96.1072C96.619 96.1072 100.364 93.6128 100.364 90.5357" fill="black" fill-opacity="0.16"/>
<path d="M73.8786 82.1786C76.1882 82.1786 78.0604 80.3078 78.0604 78C78.0604 75.6923 76.1882 73.8214 73.8786 73.8214C71.569 73.8214 69.6968 75.6923 69.6968 78C69.6968 80.3078 71.569 82.1786 73.8786 82.1786Z" fill="black" fill-opacity="0.6"/>
<path d="M110.121 82.1786C112.43 82.1786 114.303 80.3078 114.303 78C114.303 75.6923 112.43 73.8214 110.121 73.8214C107.811 73.8214 105.939 75.6923 105.939 78C105.939 80.3078 107.811 82.1786 110.121 82.1786Z" fill="black" fill-opacity="0.6"/>
<path d="M63.8633 69.0569C66.5919 65.2205 74.0723 63.0692 80.5158 64.6503C81.2635 64.8338 82.0184 64.3769 82.202 63.6298C82.3856 62.8827 81.9283 62.1284 81.1807 61.945C73.6976 60.1087 65.0355 62.5999 61.5908 67.4431C61.1449 68.0702 61.292 68.9397 61.9196 69.3854C62.5471 69.831 63.4173 69.6839 63.8633 69.0569Z" fill="black" fill-opacity="0.6"/>
<path d="M120.137 69.0569C117.408 65.2205 109.928 63.0692 103.484 64.6503C102.737 64.8338 101.982 64.3769 101.798 63.6298C101.614 62.8827 102.072 62.1284 102.819 61.945C110.302 60.1087 118.965 62.5999 122.409 67.4431C122.855 68.0702 122.708 68.9397 122.08 69.3854C121.453 69.831 120.583 69.6839 120.137 69.0569Z" fill="black" fill-opacity="0.6"/>
<mask id="mask2_114_156" style="mask-type:alpha" maskUnits="userSpaceOnUse" x="0" y="0" width="184" height="195">
<path d="M184 0H0V195H184V0Z" fill="white"/>
</mask>
<g mask="url(#mask2_114_156)">
<mask id="mask3_114_156" style="mask-type:alpha" maskUnits="userSpaceOnUse" x="50" y="18" width="84" height="51">
<path fill-rule="evenodd" clip-rule="evenodd" d="M115.912 24.3792C101.842 16.2313 87.9082 17.5653 77.3895 20.2173C66.8708 22.8693 60.6482 30.4 55.3093 41.5406C52.688 47.0109 51.134 53.4798 50.895 59.5316C50.8012 61.9078 51.1218 64.3605 51.7625 66.6484C51.9975 67.4882 53.2648 70.3998 53.6127 68.0472C53.7285 67.264 53.3046 66.1835 53.2636 65.3512C53.2099 64.259 53.2676 63.1527 53.3421 62.0622C53.4814 60.0234 53.8452 58.0232 54.4925 56.0797C55.4175 53.3024 56.595 50.2911 58.3974 47.9478C62.8587 42.1483 70.5813 41.8177 76.713 38.6264C76.1809 39.6049 74.1296 41.189 74.8403 42.2919C75.3311 43.0537 77.1891 42.8227 78.0762 42.7983C80.4102 42.7345 82.7548 42.3287 85.0603 41.9995C88.6936 41.4805 92.0981 40.4289 95.5174 39.1519C98.3167 38.1061 101.514 37.1375 103.618 34.9192C107.013 38.4346 111.383 41.7401 115.746 43.9745C119.662 45.9798 125.977 46.9818 128.37 51.0487C131.203 55.8638 129.9 61.7783 130.765 66.997C131.094 68.9815 131.842 68.937 132.251 67.162C132.946 64.1468 133.274 61.0142 133.053 57.9145C132.552 50.9169 129.983 32.5272 115.912 24.3792Z" fill="white"/>
</mask>
<g mask="url(#mask3_114_156)">
<path fill-rule="evenodd" clip-rule="evenodd" d="M115.912 24.3792C101.842 16.2313 87.9082 17.5653 77.3895 20.2173C66.8708 22.8693 60.6482 30.4 55.3093 41.5406C52.688 47.0109 51.134 53.4798 50.895 59.5316C50.8012 61.9078 51.1218 64.3605 51.7625 66.6484C51.9975 67.4882 53.2648 70.3998 53.6127 68.0472C53.7285 67.264 53.3046 66.1835 53.2636 65.3512C53.2099 64.259 53.2676 63.1527 53.3421 62.0622C53.4814 60.0234 53.8452 58.0232 54.4925 56.0797C55.4175 53.3024 56.595 50.2911 58.3974 47.9478C62.8587 42.1483 70.5813 41.8177 76.713 38.6264C76.1809 39.6049 74.1296 41.189 74.8403 42.2919C75.3311 43.0537 77.1891 42.8227 78.0762 42.7983C80.4102 42.7345 82.7548 42.3287 85.0603 41.9995C88.6936 41.4805 92.0981 40.4289 95.5174 39.1519C98.3167 38.1061 101.514 37.1375 103.618 34.9192C107.013 38.4346 111.383 41.7401 115.746 43.9745C119.662 45.9798 125.977 46.9818 128.37 51.0487C131.203 55.8638 129.9 61.7783 130.765 66.997C131.094 68.9815 131.842 68.937 132.251 67.162C132.946 64.1468 133.274 61.0142 133.053 57.9145C132.552 50.9169 129.983 32.5272 115.912 24.3792Z" fill="#28354B"/>
<path d="M183.303 0H-0.696777V195H183.303V0Z" fill="#B58143"/>
</g>
</g>
</svg>
